<?xml version="1.0" encoding="UTF-8" standalone="no"?><!DOCTYPE svg PUBLIC "-//W3C//DTD SVG 1.1//EN" "http://www.w3.org/Graphics/SVG/1.1/DTD/svg11.dtd"><svg width="100%" height="100%" viewBox="0 0 2500 2500" version="1.1" xmlns="http://www.w3.org/2000/svg" xmlns:xlink="http://www.w3.org/1999/xlink" xml:space="preserve" xmlns:serif="http://www.serif.com/" style="fill-rule:evenodd;clip-rule:evenodd;stroke-linejoin:round;stroke-miterlimit:2;"><g><path d="M1250,0c690.358,0 1250,559.647 1250,1250c0,690.356 -559.642,1250 -1250,1250c-690.352,0 -1250,-559.647 -1250,-1250c0,-690.35 559.648,-1250 1250,-1250Z" style="fill:#fff;"/><path d="M2242.05,695.348c-23.876,-42.61 -50.416,-83.526 -79.397,-122.521c-241.895,186.224 -483.783,372.447 -725.678,558.677l0,-1002.57c-47.572,-7.876 -96.143,-12.796 -145.523,-14.568l-0,2271.26c49.38,-1.772 97.951,-6.692 145.523,-14.568l0,-872.45c220.754,168.824 441.508,337.654 662.256,506.478c32.274,-36.259 62.225,-74.584 89.62,-114.662c-250.627,-191.677 -501.248,-383.347 -751.876,-575.018c268.207,-206.891 536.676,-413.429 805.075,-620.063Zm-1033.51,-580.979c-49.679,1.784 -98.538,6.758 -146.397,14.718c-517.415,86.07 -916.625,521.724 -946.695,1056.03c-2.526,44.831 -2.43,89.847 0.287,134.672c13.767,227.23 94.312,436.443 222.262,608.26c63.565,85.358 138.982,161.63 223.616,226.159l-0,-205.779c-53.654,-52.893 -101.184,-111.873 -141.412,-175.581c-83.892,-132.864 -136.755,-287.276 -148.414,-453.059l790.356,-0l-0,1051.12c47.859,7.96 96.718,12.934 146.397,14.718l-0,-2271.26Zm-937.089,1070.75c29.275,-448.151 359.586,-814.17 790.692,-897.804l-0,897.804l-790.692,0Z"/></g></svg>