<?xml version="1.0" encoding="UTF-8" standalone="no"?><!DOCTYPE svg PUBLIC "-//W3C//DTD SVG 1.1//EN" "http://www.w3.org/Graphics/SVG/1.1/DTD/svg11.dtd"><svg width="100%" height="100%" viewBox="0 0 2129 2272" version="1.1" xmlns="http://www.w3.org/2000/svg" xmlns:xlink="http://www.w3.org/1999/xlink" xml:space="preserve" xmlns:serif="http://www.serif.com/" style="fill-rule:evenodd;clip-rule:evenodd;stroke-linejoin:round;stroke-miterlimit:2;"><path d="M2128.43,580.979c-23.876,-42.61 -50.415,-83.527 -79.397,-122.521c-241.894,186.223 -483.783,372.447 -725.677,558.677l-0,-1002.57c-47.572,-7.876 -96.144,-12.797 -145.524,-14.568l0,2271.26c49.38,-1.772 97.952,-6.692 145.524,-14.569l-0,-872.45c220.754,168.825 441.508,337.655 662.256,506.479c32.273,-36.26 62.224,-74.584 89.62,-114.662c-250.628,-191.677 -501.249,-383.347 -751.876,-575.018c268.206,-206.891 536.676,-413.429 805.074,-620.063Zm-1033.51,-580.979c-49.678,1.783 -98.537,6.757 -146.397,14.718c-517.415,86.07 -916.624,521.723 -946.695,1056.03c-2.526,44.831 -2.43,89.847 0.288,134.672c13.766,227.229 94.312,436.443 222.262,608.26c63.565,85.358 138.981,161.63 223.615,226.158l0,-205.778c-53.653,-52.893 -101.183,-111.873 -141.411,-175.581c-83.892,-132.864 -136.755,-287.276 -148.415,-453.059l790.356,-0l0,1051.12c47.86,7.96 96.719,12.934 146.397,14.718l0,-2271.26Zm-937.088,1070.75c29.275,-448.151 359.586,-814.17 790.691,-897.804l0,897.804l-790.691,0Z" style="fill:#fff;"/></svg>